HIERARCHY
ROOT Hips
{
 OFFSET 0.000000 0.000000 0.000000
 CHANNELS 6 Xposition Yposition Zposition Yrotation Xrotation Zrotation
 JOINT Chest
 {
  OFFSET 0.000000 9.585900 0.002600
  CHANNELS 3 Yrotation Xrotation Zrotation
  JOINT Chest2
  {
   OFFSET 0.000000 9.601200 -0.005300
   CHANNELS 3 Yrotation Xrotation Zrotation
   JOINT Chest3
   {
    OFFSET 0.000000 9.561800 0.000000
    CHANNELS 3 Yrotation Xrotation Zrotation
    JOINT Chest4
    {
     OFFSET 0.000000 9.552100 0.000000
     CHANNELS 3 Yrotation Xrotation Zrotation
     JOINT Neck
     {
      OFFSET 0.000000 14.453000 0.000000
      CHANNELS 3 Yrotation Xrotation Zrotation
      JOINT Head
      {
       OFFSET 0.000000 8.936500 -0.011300
       CHANNELS 3 Yrotation Xrotation Zrotation
       End Site
       {
        OFFSET 0.000000 17.073600 -0.006000
       }
      }
     }
     JOINT RightCollar
     {
      OFFSET -2.921100 9.558500 0.000000
      CHANNELS 3 Yrotation Xrotation Zrotation
      JOINT RightShoulder
      {
       OFFSET -13.519700 0.000000 0.000000
       CHANNELS 3 Yrotation Xrotation Zrotation
       JOINT RightElbow
       {
        OFFSET 0.000000 -29.696600 0.000000
        CHANNELS 3 Yrotation Xrotation Zrotation
        JOINT RightWrist
        {
         OFFSET 0.000000 -24.004700 0.000000
         CHANNELS 3 Yrotation Xrotation Zrotation
         End Site
         {
          OFFSET 0.000000 -17.728500 0.000000
         }
        }
       }
      }
     }
     JOINT LeftCollar
     {
      OFFSET 2.921100 9.558500 0.000000
      CHANNELS 3 Yrotation Xrotation Zrotation
      JOINT LeftShoulder
      {
       OFFSET 13.519700 0.000000 0.000000
       CHANNELS 3 Yrotation Xrotation Zrotation
       JOINT LeftElbow
       {
        OFFSET 0.000000 -29.696600 0.000000
        CHANNELS 3 Yrotation Xrotation Zrotation
        JOINT LeftWrist
        {
         OFFSET 0.000000 -24.004700 0.000000
         CHANNELS 3 Yrotation Xrotation Zrotation
         End Site
         {
          OFFSET 0.000000 -17.728500 0.000000
         }
        }
       }
      }
     }
    }
   }
  }
 }
 JOINT RightHip
 {
  OFFSET -7.771700 -0.012900 -0.001300
  CHANNELS 3 Yrotation Xrotation Zrotation
  JOINT RightKnee
  {
   OFFSET 0.000000 -40.869800 0.001200
   CHANNELS 3 Yrotation Xrotation Zrotation
   JOINT RightAnkle
   {
    OFFSET 0.000000 -39.717900 0.002100
    CHANNELS 3 Yrotation Xrotation Zrotation
    JOINT RightToe
    {
     OFFSET 0.000000 -4.965400 11.033500
     CHANNELS 3 Yrotation Xrotation Zrotation
     End Site
     {
      OFFSET 0.000000 -1.423100 5.872300
     }
    }
   }
  }
 }
 JOINT LeftHip
 {
  OFFSET 7.771700 -0.012900 -0.001300
  CHANNELS 3 Yrotation Xrotation Zrotation
  JOINT LeftKnee
  {
   OFFSET 0.000000 -40.869800 0.001200
   CHANNELS 3 Yrotation Xrotation Zrotation
   JOINT LeftAnkle
   {
    OFFSET 0.000000 -39.717900 0.002100
    CHANNELS 3 Yrotation Xrotation Zrotation
    JOINT LeftToe
    {
     OFFSET 0.000000 -4.965400 11.033500
     CHANNELS 3 Yrotation Xrotation Zrotation
     End Site
     {
      OFFSET 0.000000 -1.423100 5.872300
     }
    }
   }
  }
 }
}
MOTION
Frames: 15
Frame Time: 0.008333
0.000000 85.388000 0.000000 0.000000 -5.767877 0.000000 0.000000 11.653817 0.000000 0.000000 -5.885947 0.000000 0.000000 -0.000000 0.000000 0.000000 -0.000000 0.000000 0.000000 12.528835 0.000000 0.000000 0.711642 0.000000 0.000000 -0.000000 0.000000 0.000000 0.000000 -90.000000 0.000000 -2.309062 0.000000 0.000000 2.309062 0.000000 0.000000 -0.000000 0.000000 0.000000 -0.000000 90.000000 0.000000 -2.309062 0.000000 0.000000 2.309062 0.000000 0.000000 8.520406 0.000000 0.000000 1.905762 0.000000 -0.000000 -4.658285 0.000000 0.000000 -0.000000 0.000000 0.000000 8.520406 0.000000 0.000000 1.905762 0.000000 -0.000000 -4.658285 0.000000 0.000000 -0.000000 0.000000
-24.166539 57.945741 13.224217 177.888957 -47.893763 -3.468802 3.607503 22.014594 2.956482 1.810606 12.625558 1.533019 2.360121 15.815526 1.985586 1.834831 12.656047 1.523617 0.204605 19.268516 3.298001 -0.648233 0.040176 5.966285 -1.364993 9.852336 -1.947429 -33.847947 -10.085190 10.100476 -69.242511 -30.188993 97.277015 -14.640094 -20.302163 -12.082144 -7.269654 7.004726 1.714659 24.146248 -13.552175 -4.808969 78.383383 -43.104731 -86.091343 14.218374 -19.873889 8.068217 2.612999 -23.754713 -3.071833 -35.170820 73.217447 -39.539537 5.883615 -13.374377 11.601023 0.052903 -0.183402 0.011472 -4.037325 -21.220138 7.006573 87.746862 84.238403 87.159012 -0.309633 -22.498025 -15.856178 0.003488 0.037691 0.003771
-24.163996 57.944972 13.215030 177.888776 -47.894984 -3.468698 3.627209 22.030240 2.958840 1.808620 12.631959 1.534726 2.352758 15.800547 1.989120 1.864457 12.688576 1.501200 0.110663 19.274610 3.343707 -0.833748 0.057640 6.078826 -1.368457 9.863080 -1.905122 -33.780752 -10.059038 10.193345 -69.205629 -30.045769 96.807913 -14.757091 -20.589330 -12.720522 -7.392736 7.040217 1.688435 24.183155 -13.543790 -4.790473 78.520126 -42.520150 -86.015378 14.509069 -20.128743 8.419412 2.598620 -23.760787 -3.075179 -35.237685 73.233008 -39.609106 5.897291 -13.383882 11.599603 0.035875 -0.184709 0.010221 -4.007931 -21.216510 7.020742 87.834752 84.261192 87.266262 -0.336815 -22.518616 -15.850913 0.023165 0.039527 0.012451
-24.163573 57.945267 13.202887 177.905874 -47.908996 -3.468401 3.636265 22.059697 2.946643 1.815677 12.638938 1.537026 2.364213 15.809390 1.986476 1.867228 12.685386 1.498739 0.013643 19.293945 3.384413 -1.035427 0.080865 6.206874 -1.377903 9.859580 -1.870490 -33.667223 -10.062340 10.257514 -69.128976 -29.788384 96.288841 -14.901352 -20.875172 -13.382202 -7.525503 7.071962 1.651396 24.201331 -13.529679 -4.755522 78.645365 -41.948767 -85.936482 14.796925 -20.399093 8.785396 2.574536 -23.750823 -3.092691 -35.346596 73.252306 -39.720795 5.915712 -13.405362 11.598145 0.043596 -0.190966 0.005245 -3.996408 -21.201583 7.014334 87.960353 84.272546 87.398510 -0.350976 -22.528792 -15.845632 0.028990 0.034292 0.017139
-24.160817 57.943502 13.191661 177.904326 -47.910740 -3.470621 3.664482 22.075662 2.950077 1.850987 12.661660 1.523820 2.359587 15.799888 1.997238 1.848131 12.661136 1.523892 -0.076556 19.336972 3.404298 -1.240223 0.109393 6.340405 -1.368807 9.882868 -1.859813 -33.523460 -10.113350 10.304521 -69.016518 -29.390982 95.748047 -15.067097 -21.168973 -14.057848 -7.627622 7.099170 1.600949 24.175567 -13.498466 -4.712346 78.754044 -41.395588 -85.833054 15.069358 -20.674890 9.152038 2.566462 -23.750915 -3.088598 -35.396651 73.258806 -39.776335 5.932836 -13.418356 11.600648 0.038332 -0.189070 0.004165 -3.978216 -21.199379 7.023549 88.119145 84.285236 87.568728 -0.355100 -22.544370 -15.845065 0.029571 0.030552 0.021475
-24.158312 57.940581 13.180809 177.906109 -47.906850 -3.477713 3.677798 22.079115 2.955544 1.866042 12.677386 1.513960 2.378985 15.806784 1.993418 1.857302 12.668040 1.519649 -0.181956 19.351929 3.462517 -1.436524 0.147187 6.467316 -1.328197 9.955173 -1.804214 -33.404019 -10.265721 10.369873 -68.882226 -28.842919 95.218639 -15.251663 -21.468463 -14.743079 -7.752471 7.090008 1.591132 24.121736 -13.467966 -4.662331 78.834736 -40.867038 -85.684142 15.309627 -20.944239 9.494342 2.547808 -23.757938 -3.084790 -35.405114 73.268667 -39.797020 5.955224 -13.426208 11.605087 0.026854 -0.189701 -0.000792 -3.961820 -21.203443 7.034856 88.366801 84.304003 87.827321 -0.349095 -22.571226 -15.840839 0.030294 0.034320 0.021460
-24.156964 57.937233 13.170090 177.906090 -47.902759 -3.481465 3.689828 22.083225 2.957204 1.880396 12.699874 1.500458 2.395235 15.806712 1.992884 1.866900 12.673916 1.516390 -0.281136 19.372441 3.519261 -1.612869 0.197813 6.579738 -1.304999 9.957742 -1.733995 -33.210454 -10.397765 10.352149 -68.752585 -28.151036 94.731432 -15.459593 -21.757510 -15.429873 -7.871717 7.073245 1.584623 24.037206 -13.440279 -4.612137 78.866499 -40.379253 -85.471982 15.515404 -21.209578 9.798597 2.533751 -23.763461 -3.079340 -35.418744 73.277739 -39.823927 5.966346 -13.440239 11.611042 0.019729 -0.187753 -0.005295 -3.947699 -21.208773 7.041780 88.506995 84.313034 87.981560 -0.358548 -22.577868 -15.840520 0.032718 0.029283 0.023223
-24.156708 57.932876 13.160501 177.910643 -47.891911 -3.487581 3.701201 22.092620 2.950654 1.877019 12.691650 1.506536 2.415869 15.857626 1.963042 1.871572 12.645777 1.530174 -0.360983 19.400830 3.570888 -1.763519 0.260289 6.674547 -1.268017 9.919786 -1.660127 -32.966882 -10.517575 10.277651 -68.641961 -27.325266 94.309795 -15.681295 -22.039084 -16.115499 -7.974092 7.046871 1.577046 23.925198 -13.413383 -4.559380 78.831717 -39.945017 -85.186784 15.690839 -21.470528 10.070972 2.517567 -23.774366 -3.077419 -35.424451 73.287832 -39.841640 5.975420 -13.458570 11.617926 0.011370 -0.178271 -0.008311 -3.947349 -21.220374 7.046392 88.629440 84.316140 88.110059 -0.361494 -22.587813 -15.842533 0.038030 0.038498 0.022907
-24.156782 57.927285 13.152686 177.904632 -47.871231 -3.489194 3.712684 22.093497 2.946116 1.878198 12.682023 1.511196 2.414545 15.875929 1.962284 1.882582 12.649758 1.515624 -0.425897 19.435994 3.618725 -1.885280 0.331729 6.748424 -1.215965 9.854743 -1.578199 -32.688199 -10.627979 10.156552 -68.550265 -26.385969 93.965130 -15.909274 -22.321668 -16.792304 -8.065665 7.006156 1.567878 23.791243 -13.385234 -4.496965 78.728177 -39.569890 -84.828857 15.840061 -21.713951 10.326839 2.504306 -23.799172 -3.070191 -35.419917 73.295047 -39.849293 5.974502 -13.465318 11.623402 0.006906 -0.171546 -0.010520 -3.922587 -21.242458 7.047527 88.666954 84.319509 88.171750 -0.367425 -22.598728 -15.844058 0.044091 0.043360 0.024953
-24.157055 57.923254 13.144376 177.899457 -47.861335 -3.494221 3.717870 22.106930 2.942732 1.873581 12.710607 1.510843 2.420161 15.851857 1.971191 1.880805 12.688470 1.513354 -0.460859 19.423378 3.635138 -1.984616 0.427455 6.810026 -1.131091 9.736448 -1.503933 -32.394363 -10.723732 9.996999 -68.475161 -25.368428 93.698739 -16.143019 -22.603591 -17.439460 -8.132939 6.918184 1.544495 23.637678 -13.360779 -4.424855 78.556380 -39.264986 -84.402873 15.981119 -21.932932 10.590816 2.500781 -23.811179 -3.059549 -35.451982 73.300937 -39.885996 5.976640 -13.479946 11.625568 0.001544 -0.160562 -0.006463 -3.893809 -21.252467 7.043244 88.734239 84.331115 88.273845 -0.358393 -22.615782 -15.851802 0.051492 0.048548 0.026839
-24.157936 57.919213 13.137112 177.889814 -47.848843 -3.495535 3.721655 22.116518 2.944854 1.868864 12.708317 1.517908 2.417867 15.853266 1.974326 1.878887 12.689653 1.515883 -0.470183 19.419972 3.621686 -2.064340 0.563760 6.867730 -1.021265 9.653619 -1.428244 -32.104771 -10.805519 9.810994 -68.412897 -24.309870 93.506471 -16.368222 -22.879700 -18.036177 -8.185960 6.867127 1.510268 23.467430 -13.350666 -4.350120 78.314786 -39.034719 -83.919596 16.130642 -22.123806 10.900663 2.505095 -23.827912 -3.047063 -35.486265 73.307374 -39.927833 5.972202 -13.489240 11.632956 -0.002410 -0.156613 -0.004085 -3.883870 -21.263987 7.046876 88.855309 84.338487 88.407638 -0.349994 -22.633413 -15.858176 0.049593 0.061220 0.025760
-24.157431 57.916664 13.129852 177.872890 -47.844942 -3.501646 3.713749 22.143885 2.961472 1.881935 12.688347 1.515458 2.406958 15.850542 1.983794 1.874585 12.688025 1.519185 -0.496697 19.483925 3.620615 -2.068945 0.650321 6.864269 -0.881666 9.580810 -1.352021 -31.833950 -10.869073 9.609566 -68.358319 -23.251934 93.375989 -16.568177 -23.136171 -18.568237 -8.216062 6.830551 1.475799 23.286760 -13.363744 -4.280744 78.004867 -38.857536 -83.396605 16.290628 -22.282627 11.277109 2.515975 -23.833025 -3.030236 -35.494783 73.313064 -39.935549 5.974096 -13.497715 11.643314 -0.016458 -0.152547 -0.009380 -3.865728 -21.265666 7.050777 89.010634 84.342183 88.594042 -0.329876 -22.653823 -15.883025 0.053832 0.062054 0.030678
-24.161663 57.914229 13.123133 177.855924 -47.840481 -3.480442 3.695924 22.143570 2.952658 1.898766 12.688749 1.507054 2.381423 15.839059 2.006835 1.882721 12.696468 1.500853 -0.509367 19.582324 3.666944 -2.031172 0.699121 6.798099 -0.726693 9.508715 -1.257184 -31.590585 -10.909573 9.405343 -68.302993 -22.247437 93.287816 -16.738926 -23.363608 -19.035010 -8.236496 6.805340 1.464649 23.099654 -13.403255 -4.218369 77.631433 -38.695062 -82.851115 16.457326 -22.418352 11.715530 2.534877 -23.837564 -3.039437 -35.499448 73.320134 -39.944398 5.957410 -13.509713 11.652700 -0.008935 -0.143523 -0.009383 -3.829064 -21.267921 7.012114 88.995933 84.323400 88.609824 -0.316089 -22.663578 -15.890710 0.043850 0.072670 0.023389
-24.164672 57.912288 13.117288 177.837229 -47.837489 -3.465669 3.677100 22.131817 2.955174 1.893904 12.697646 1.506537 2.372033 15.815162 2.019622 1.888756 12.718106 1.477091 -0.495678 19.611454 3.667285 -1.964733 0.805962 6.742534 -0.561866 9.437207 -1.166639 -31.365231 -10.933667 9.207723 -68.247375 -21.344573 93.221527 -16.878542 -23.566523 -19.453938 -8.243595 6.791551 1.449554 22.898761 -13.474030 -4.157501 77.214819 -38.515700 -82.310527 16.634407 -22.540049 12.207949 2.552440 -23.840198 -3.040962 -35.494740 73.326124 -39.944190 5.961348 -13.524888 11.655177 -0.019733 -0.134929 -0.006478 -3.809301 -21.269997 6.992745 89.019518 84.309845 88.648839 -0.304948 -22.665595 -15.898153 0.034489 0.080385 0.019792
-24.163434 57.912193 13.111378 177.857624 -47.845529 -3.504954 3.642399 22.119547 2.989930 1.853417 12.668702 1.535666 2.386330 15.827211 1.998071 1.875368 12.727362 1.477433 -0.483320 19.653259 3.615130 -1.840611 0.911581 6.666412 -0.392315 9.391210 -1.118008 -31.147464 -10.947874 9.027123 -68.193212 -20.578388 93.156117 -16.987777 -23.749645 -19.839651 -8.249494 6.784202 1.395990 22.694560 -13.547320 -4.092055 76.788524 -38.295064 -81.815371 16.828350 -22.651661 12.732710 2.542924 -23.827742 -3.014390 -35.507817 73.323190 -39.949835 5.959283 -13.565888 11.658013 -0.021126 -0.096680 -0.003847 -3.828563 -21.257997 7.006362 89.076929 84.311241 88.721758 -0.292257 -22.644207 -15.899028 0.027868 0.055733 0.009816
